<svg width="400" height="256" viewBox="0 0 400 256" fill="none" xmlns="http://www.w3.org/2000/svg">
<mask id="path-1-outside-1" maskUnits="userSpaceOnUse" x="0" y="0" width="400" height="256" fill="black">
<rect fill="white" width="400" height="256"/>
<path fill-rule="evenodd" clip-rule="evenodd" d="M260.047 52.2707L200 7L142.049 50.6901C77.2769 60.6213 30.7784 87.8194 30.7784 119.815C30.7784 124.198 31.6508 128.491 33.323 132.661L15 146.475H42.1187C55.3495 161.404 79.3646 173.943 109.93 182.223L52.9623 251H339.76L282.791 182.223C313.357 173.943 337.372 161.404 350.603 146.475H385L360.85 128.268C361.572 125.495 361.943 122.674 361.943 119.815C361.943 89.3852 319.884 63.2948 260.047 52.2707Z"/>
</mask>
<path fill-rule="evenodd" clip-rule="evenodd" d="M260.047 52.2707L200 7L142.049 50.6901C77.2769 60.6213 30.7784 87.8194 30.7784 119.815C30.7784 124.198 31.6508 128.491 33.323 132.661L15 146.475H42.1187C55.3495 161.404 79.3646 173.943 109.93 182.223L52.9623 251H339.76L282.791 182.223C313.357 173.943 337.372 161.404 350.603 146.475H385L360.85 128.268C361.572 125.495 361.943 122.674 361.943 119.815C361.943 89.3852 319.884 63.2948 260.047 52.2707Z" fill="#E70C0C"/>
<path d="M200 7L203.01 3.00752L200 0.738223L196.99 3.00752L200 7ZM260.047 52.2707L257.037 56.2632L257.98 56.974L259.141 57.1879L260.047 52.2707ZM142.049 50.6901L142.807 55.6323L144.053 55.4413L145.059 54.6826L142.049 50.6901ZM33.323 132.661L36.333 136.653L39.3874 134.351L37.9638 130.8L33.323 132.661ZM15 146.475L11.99 142.483L0.0623522 151.475H15V146.475ZM42.1187 146.475L45.8606 143.159L44.3684 141.475H42.1187V146.475ZM109.93 182.223L113.781 185.412L118.738 179.428L111.238 177.397L109.93 182.223ZM52.9623 251L49.1116 247.811L42.3283 256H52.9623V251ZM339.76 251V256H350.393L343.61 247.811L339.76 251ZM282.791 182.223L281.484 177.397L273.984 179.428L278.941 185.412L282.791 182.223ZM350.603 146.475V141.475H348.353L346.861 143.159L350.603 146.475ZM385 146.475V151.475H399.938L388.01 142.483L385 146.475ZM360.85 128.268L356.011 127.008L355.168 130.246L357.84 132.26L360.85 128.268ZM196.99 10.9925L257.037 56.2632L263.057 48.2782L203.01 3.00752L196.99 10.9925ZM145.059 54.6826L203.01 10.9925L196.99 3.00752L139.039 46.6976L145.059 54.6826ZM141.292 45.7479C108.477 50.7791 79.9723 60.2234 59.5188 72.711C39.2488 85.0865 25.7784 101.203 25.7784 119.815H35.7784C35.7784 106.432 45.5573 92.9513 64.7297 81.246C83.7185 69.6527 110.849 60.5323 142.807 55.6323L141.292 45.7479ZM25.7784 119.815C25.7784 124.876 26.7884 129.799 28.6821 134.522L37.9638 130.8C36.5131 127.182 35.7784 123.52 35.7784 119.815H25.7784ZM18.01 150.467L36.333 136.653L30.313 128.669L11.99 142.483L18.01 150.467ZM42.1187 141.475H15V151.475H42.1187V141.475ZM38.3767 149.791C52.5429 165.775 77.6486 178.658 108.623 187.049L111.238 177.397C81.0806 169.228 58.1561 157.032 45.8606 143.159L38.3767 149.791ZM106.08 179.033L49.1116 247.811L56.8129 254.189L113.781 185.412L106.08 179.033ZM52.9623 256H339.76V246H52.9623V256ZM343.61 247.811L286.642 179.033L278.941 185.412L335.909 254.189L343.61 247.811ZM284.099 187.049C315.073 178.658 340.179 165.775 354.345 149.791L346.861 143.159C334.566 157.032 311.641 169.228 281.484 177.397L284.099 187.049ZM385 141.475H350.603V151.475H385V141.475ZM357.84 132.26L381.99 150.467L388.01 142.483L363.86 124.275L357.84 132.26ZM365.689 129.528C366.515 126.355 366.943 123.112 366.943 119.815H356.943C356.943 122.237 356.629 124.634 356.011 127.008L365.689 129.528ZM366.943 119.815C366.943 102.11 354.739 86.6589 336.161 74.5744C317.444 62.4005 291.288 52.9421 260.953 47.3535L259.141 57.1879C288.644 62.6234 313.435 71.7223 330.708 82.9571C348.118 94.2814 356.943 107.091 356.943 119.815H366.943Z" fill="black" mask="url(#path-1-outside-1)"/>
<g filter="url(#filter0_i)">
<ellipse cx="130.726" cy="104.535" rx="37.8474" ry="24.7089" fill="white"/>
</g>
<path d="M168.073 104.535C168.073 111.134 163.976 117.174 157.215 121.588C150.458 125.999 141.094 128.744 130.726 128.744C120.357 128.744 110.994 125.999 104.237 121.588C97.4759 117.174 93.3784 111.134 93.3784 104.535C93.3784 97.9359 97.4759 91.8959 104.237 87.4818C110.994 83.0708 120.357 80.3261 130.726 80.3261C141.094 80.3261 150.458 83.0708 157.215 87.4818C163.976 91.8959 168.073 97.9359 168.073 104.535Z" stroke="black"/>
<g filter="url(#filter1_i)">
<ellipse cx="258.097" cy="104.535" rx="37.8474" ry="24.7089" fill="#130707"/>
</g>
<path d="M212.462 248.352C212.395 248.352 212.228 248.352 211.962 248.352C211.695 248.352 210.662 249.018 208.862 250.352L185.862 190.152L181.062 242.552C180.928 243.618 181.428 244.518 182.562 245.252C183.695 245.985 185.262 246.352 187.262 246.352H191.462V249.352H167.462V246.352H170.662C174.528 246.352 176.595 244.885 176.862 241.952L181.862 186.752C181.995 185.485 181.528 184.452 180.462 183.652C179.462 182.785 177.862 182.352 175.662 182.352H172.462V179.352H191.262L212.662 235.752L234.262 179.352H252.262V182.152H248.262C245.062 182.152 243.462 183.385 243.462 185.852C243.462 186.052 243.462 186.285 243.462 186.552L248.062 241.952C248.195 243.485 248.562 244.618 249.162 245.352C249.828 246.018 250.995 246.352 252.662 246.352H256.662V249.352H231.062V246.352H234.462C236.328 246.352 237.595 246.052 238.262 245.452C238.928 244.852 239.262 244.218 239.262 243.552C239.262 242.818 239.262 242.285 239.262 241.952L234.862 189.552L212.462 248.352Z" fill="black" fill-opacity="0.42"/>
<defs>
<filter id="filter0_i" x="92.8784" y="79.8261" width="75.6948" height="53.4177" filterUnits="userSpaceOnUse" color-interpolation-filters="sRGB">
<feFlood flood-opacity="0" result="BackgroundImageFix"/>
<feBlend mode="normal" in="SourceGraphic" in2="BackgroundImageFix" result="shape"/>
<feColorMatrix in="SourceAlpha" type="matrix" values="0 0 0 0 0 0 0 0 0 0 0 0 0 0 0 0 0 0 127 0" result="hardAlpha"/>
<feOffset dy="4"/>
<feGaussianBlur stdDeviation="2"/>
<feComposite in2="hardAlpha" operator="arithmetic" k2="-1" k3="1"/>
<feColorMatrix type="matrix" values="0 0 0 0 0 0 0 0 0 0 0 0 0 0 0 0 0 0 0.25 0"/>
<feBlend mode="normal" in2="shape" result="effect1_innerShadow"/>
</filter>
<filter id="filter1_i" x="220.25" y="79.8261" width="75.6948" height="53.4177" filterUnits="userSpaceOnUse" color-interpolation-filters="sRGB">
<feFlood flood-opacity="0" result="BackgroundImageFix"/>
<feBlend mode="normal" in="SourceGraphic" in2="BackgroundImageFix" result="shape"/>
<feColorMatrix in="SourceAlpha" type="matrix" values="0 0 0 0 0 0 0 0 0 0 0 0 0 0 0 0 0 0 127 0" result="hardAlpha"/>
<feOffset dy="4"/>
<feGaussianBlur stdDeviation="2"/>
<feComposite in2="hardAlpha" operator="arithmetic" k2="-1" k3="1"/>
<feColorMatrix type="matrix" values="0 0 0 0 0 0 0 0 0 0 0 0 0 0 0 0 0 0 0.25 0"/>
<feBlend mode="normal" in2="shape" result="effect1_innerShadow"/>
</filter>
</defs>
</svg>
