<?xml version="1.0" standalone="no"?>
<!DOCTYPE svg PUBLIC "-//W3C//DTD SVG 20010904//EN"
 "http://www.w3.org/TR/2001/REC-SVG-20010904/DTD/svg10.dtd">
<svg version="1.0" xmlns="http://www.w3.org/2000/svg"
 width="930.000000pt" height="930.000000pt" viewBox="0 0 930.000000 930.000000"
 preserveAspectRatio="xMidYMid meet">
<metadata>
Created by potrace 1.11, written by Peter Selinger 2001-2013
</metadata>
<g transform="translate(0.000000,930.000000) scale(0.100000,-0.100000)"
fill="#000000" stroke="none">
<path d="M860 4650 l0 -4650 3790 0 3790 0 0 4650 0 4650 -3790 0 -3790 0 0
-4650z m5914 3134 c446 -273 815 -500 820 -504 7 -7 -1605 -2660 -1640 -2699
-11 -12 -145 67 -844 494 -471 288 -829 513 -826 520 3 9 1537 2520 1623 2658
17 27 29 37 40 33 8 -4 381 -229 827 -502z m-2814 -1354 l0 -1590 -980 0 -980
0 0 1590 0 1590 980 0 980 0 0 -1590z m2934 -3450 c868 -1177 924 -1256 908
-1271 -23 -23 -1555 -1150 -1557 -1147 -3 4 -1708 2318 -1797 2439 -43 58 -78
110 -78 115 1 5 353 268 783 585 775 571 782 577 799 555 9 -11 433 -586 942
-1276z m-2934 -550 l0 -1590 -980 0 -980 0 0 1590 0 1590 980 0 980 0 0 -1590z"/>
</g>
</svg>
